<svg width="375" height="812" viewBox="0 0 375 812" fill="none" xmlns="http://www.w3.org/2000/svg">
<g clip-path="url(#clip0_2_761)">
<rect width="375" height="812" fill="#2A2D30"/>
<path d="M0 406C8.26902 403.992 32.2492 390.594 62.0176 353.07C72.7738 341.075 79.9607 335.767 98.1699 358.2C100.511 361.085 104.876 361.376 107.44 358.688L158.16 305.534C160.518 303.062 164.461 303.055 166.828 305.519L199.535 339.561C202.036 342.164 206.243 341.967 208.48 339.135C222.757 321.063 231.415 311.52 266.176 354.917C268.573 357.909 273.103 357.999 275.574 355.068C285.699 343.056 297.775 331.946 316.29 353.07C329.934 370.426 360.777 405.139 375 405.139" stroke="#ADE72C" stroke-width="14"/>
<path d="M0 365C8.26902 362.992 32.2492 349.594 62.0176 312.07C72.7738 300.075 79.9607 294.767 98.1699 317.2C100.511 320.085 104.876 320.376 107.44 317.688L158.16 264.534C160.518 262.062 164.461 262.055 166.828 264.519L199.535 298.561C202.036 301.164 206.243 300.967 208.48 298.135C222.757 280.063 231.415 270.52 266.176 313.917C268.573 316.909 273.103 316.999 275.574 314.068C285.699 302.056 297.775 290.946 316.29 312.07C329.934 329.426 360.777 364.139 375 364.139" stroke="#FFF62C" stroke-width="14"/>
<path d="M0 321C8.26902 318.992 32.2492 305.594 62.0176 268.07C72.7738 256.075 79.9607 250.767 98.1699 273.2C100.511 276.085 104.876 276.376 107.44 273.688L158.16 220.534C160.518 218.062 164.461 218.055 166.828 220.519L199.535 254.561C202.036 257.164 206.243 256.967 208.48 254.135C222.757 236.063 231.415 226.52 266.176 269.917C268.573 272.909 273.103 272.999 275.574 270.068C285.699 258.056 297.775 246.946 316.29 268.07C329.934 285.426 360.777 320.139 375 320.139" stroke="#FFA41E" stroke-width="14"/>
<path d="M0 270C8.26902 267.992 32.2492 254.594 62.0176 217.07C72.7738 205.075 79.9607 199.767 98.1699 222.2C100.511 225.085 104.876 225.376 107.44 222.688L158.16 169.534C160.518 167.062 164.461 167.055 166.828 169.519L199.535 203.561C202.036 206.164 206.243 205.967 208.48 203.135C222.757 185.063 231.415 175.52 266.176 218.917C268.573 221.909 273.103 221.999 275.574 219.068C285.699 207.056 297.775 195.946 316.29 217.07C329.934 234.426 360.777 269.139 375 269.139" stroke="#FF4E15" stroke-width="14"/>
<path fill-rule="evenodd" clip-rule="evenodd" d="M135.76 491.395C135.457 491.696 135.362 498.404 135.362 519.574V547.359H137.681H140V519.379C140 494.169 139.948 491.379 139.476 491.199C138.574 490.855 136.176 490.981 135.76 491.395ZM280.702 501.958C279.962 502.504 279.649 505.007 280.108 506.703C280.517 508.212 280.985 508.458 283.453 508.458C285.907 508.458 286.389 508.209 286.788 506.737C287.269 504.96 286.888 502.293 286.093 501.87C285.221 501.406 281.365 501.468 280.702 501.958ZM89.726 514.777C89.1976 515.305 89.1856 518.097 89.7094 518.619C90.001 518.909 92.7633 519.014 100.062 519.016C106.212 519.017 110.525 519.155 111.343 519.377C113.792 520.041 115.153 521.9 115.153 524.58V526.223L104.634 526.327C94.3695 526.427 94.0736 526.449 92.3668 527.216C90.271 528.158 87.9419 530.606 87.3867 532.449C87.17 533.169 86.9961 535.223 87.0001 537.015C87.0057 539.573 87.1521 540.591 87.6809 541.756C88.6274 543.84 90.4641 545.59 92.6113 546.452C94.384 547.164 94.8869 547.193 107.285 547.292L120.123 547.394V536.066C120.123 529.302 119.977 523.956 119.762 522.796C119.064 519.044 117.343 516.726 114.159 515.254C112.754 514.604 112.02 514.559 101.404 514.464C92.6967 514.386 90.046 514.457 89.726 514.777ZM155.652 542.301L155.737 570.256L156.692 570.712C157.455 571.075 157.906 571.09 158.929 570.785L160.21 570.403V558.881V547.359L168.078 547.353C178.604 547.345 181.616 546.701 184.807 543.776C187.885 540.952 188.868 537.265 188.625 529.447C188.496 525.315 188.341 524.123 187.729 522.547C186.29 518.841 184.039 516.719 180.088 515.343C178.045 514.632 177.359 514.587 166.751 514.47L155.568 514.346L155.652 542.301ZM204.652 514.837C204.195 515.383 204.065 517.194 204.405 518.256C204.637 518.98 204.642 518.981 215.471 519.08C225.608 519.173 226.376 519.221 227.428 519.838C229.191 520.871 229.886 522.046 230.048 524.262L230.19 526.223L219.633 526.326C209.458 526.426 209.017 526.457 207.438 527.181C204.895 528.347 203.741 529.394 202.724 531.453C201.873 533.178 201.789 533.667 201.8 536.812C201.814 540.768 202.376 542.459 204.304 544.339C207.15 547.115 208.658 547.359 223.007 547.359H234.752V535.059C234.752 521.41 234.647 520.555 232.658 517.961C231.987 517.086 230.835 516.172 229.627 515.557L227.678 514.565L216.363 514.463C206.821 514.377 204.986 514.435 204.652 514.837ZM257.015 514.968C254.72 515.64 252.325 517.773 251.279 520.076C250.496 521.799 250.487 521.934 250.391 534.587L250.294 547.359H252.612H254.931L255.028 535.081C255.122 523.422 255.16 522.747 255.801 521.662C257.036 519.571 258.15 519.2 263.575 519.072C268.908 518.947 269.207 518.826 269.207 516.787C269.207 514.448 269.086 514.397 263.646 514.426C260.268 514.445 258.232 514.611 257.015 514.968ZM281.713 514.756C281.174 515.069 281.133 516.208 281.133 531.225V547.359H283.453H285.772V531.22C285.772 515.602 285.751 515.071 285.131 514.741C284.319 514.309 282.471 514.317 281.713 514.756ZM176.209 519.351C180.061 519.905 182.583 521.763 183.463 524.695C184.037 526.606 184.025 535.185 183.446 537.141C182.907 538.963 180.497 541.401 178.597 542.046C177.67 542.36 174.704 542.544 168.741 542.656L160.21 542.816V530.915V519.014L167.084 519.021C170.865 519.024 174.971 519.173 176.209 519.351ZM115.153 536.834V542.788L105.297 542.684C96.1164 542.587 95.3521 542.533 94.1462 541.904C92.3837 540.984 91.6309 539.483 91.6309 536.889C91.6309 533.473 92.7123 531.826 95.3663 531.199C95.9541 531.06 100.646 530.932 105.794 530.913L115.153 530.879V536.834ZM230.114 536.812V542.744L220.754 542.73C210.029 542.713 208.702 542.49 207.344 540.471C206.322 538.951 206.262 534.881 207.237 533.29C208.58 531.099 209.405 530.954 220.754 530.913L230.114 530.879V536.812Z" fill="white"/>
<path d="M252.5 799H123.5C122.119 799 121 800.119 121 801.5C121 802.881 122.119 804 123.5 804H252.5C253.881 804 255 802.881 255 801.5C255 800.119 253.881 799 252.5 799Z" fill="white"/>
</g>
<defs>
<clipPath id="clip0_2_761">
<rect width="375" height="812" fill="white"/>
</clipPath>
</defs>
</svg>
